<?xml version="1.0" standalone="no"?>
<!DOCTYPE svg PUBLIC "-//W3C//DTD SVG 20010904//EN"
 "http://www.w3.org/TR/2001/REC-SVG-20010904/DTD/svg10.dtd">
<svg version="1.0" xmlns="http://www.w3.org/2000/svg"
 width="1280.000000pt" height="1280.000000pt" viewBox="0 0 1280.000000 1280.000000"
 preserveAspectRatio="xMidYMid meet">
<metadata>
Created by potrace 1.15, written by Peter Selinger 2001-2017
</metadata>
<g transform="translate(0.000000,1280.000000) scale(0.100000,-0.100000)"
fill="#4caf50" stroke="none">
<path d="M6100 12794 c-463 -31 -741 -68 -1090 -145 -865 -191 -1718 -582
-2430 -1114 -1404 -1050 -2317 -2613 -2529 -4335 -32 -256 -41 -384 -48 -665
-21 -907 151 -1803 509 -2647 74 -175 262 -548 358 -713 924 -1578 2489 -2696
4270 -3050 1522 -303 3088 -50 4426 714 377 215 722 460 1049 745 152 132 453
434 592 592 1184 1351 1743 3107 1558 4893 -67 639 -225 1250 -480 1851 -72
168 -261 544 -355 705 -952 1625 -2575 2756 -4420 3079 -352 62 -624 86 -1030
90 -179 2 -350 2 -380 0z m575 -574 c1305 -69 2469 -526 3475 -1364 170 -142
523 -490 669 -661 691 -808 1151 -1787 1326 -2823 204 -1204 23 -2447 -515
-3537 -290 -588 -639 -1073 -1110 -1546 -341 -342 -649 -588 -1044 -834 -782
-489 -1636 -773 -2586 -861 -252 -24 -728 -24 -980 0 -993 91 -1876 395 -2685
924 -1103 721 -1931 1787 -2346 3022 -414 1234 -408 2535 16 3767 227 660 577
1276 1049 1843 156 189 521 553 711 711 598 497 1227 846 1954 1084 652 213
1385 311 2066 275z"/>
<path d="M3112 8963 l3 -288 230 -82 c127 -45 383 -137 570 -204 187 -67 526
-189 754 -270 228 -82 416 -149 418 -149 2 0 3 128 3 286 l0 285 -32 13 c-18
8 -229 84 -468 169 -239 86 -668 239 -953 341 -286 102 -521 186 -523 186 -2
0 -3 -129 -2 -287z"/>
<path d="M9485 9205 c-153 -55 -1091 -392 -1507 -540 -175 -63 -322 -117 -328
-120 -9 -6 -16 -575 -7 -575 4 0 336 119 1287 460 294 105 569 204 610 218
l75 27 3 288 c1 158 -1 287 -5 286 -5 0 -62 -20 -128 -44z"/>
<path d="M3972 8196 c-134 -33 -275 -141 -339 -263 -107 -199 -78 -447 70
-610 243 -266 651 -232 849 71 54 83 79 171 79 277 0 106 -13 164 -60 254
-110 214 -363 328 -599 271z"/>
<path d="M8503 8196 c-182 -44 -332 -190 -387 -376 -21 -70 -21 -207 -1 -284
46 -174 200 -327 380 -377 73 -21 227 -16 297 8 173 60 319 216 357 383 15 66
13 197 -4 265 -49 186 -216 346 -403 384 -68 14 -173 13 -239 -3z"/>
<path d="M6165 5793 c-861 -57 -1659 -405 -2287 -999 l-77 -73 0 -340 c0 -188
2 -341 5 -341 3 0 53 43 111 95 535 484 1157 792 1838 910 267 46 319 50 645
50 326 0 378 -4 645 -50 676 -118 1300 -426 1830 -903 l110 -99 3 341 3 341
-93 90 c-441 427 -1071 758 -1709 899 -313 69 -710 100 -1024 79z"/>
</g>
</svg>
