<?xml version="1.0" encoding="utf-8"?>
<!-- Generator: Adobe Illustrator 24.3.0, SVG Export Plug-In . SVG Version: 6.00 Build 0)  -->
<svg version="1.1" id="Layer_1" width="200px" height="200px" xmlns="http://www.w3.org/2000/svg" xmlns:xlink="http://www.w3.org/1999/xlink" x="0px" y="0px"
	 viewBox="0 0 1280 1280" style="enable-background:new 0 0 1280 1280;" xml:space="preserve"> 
<style type="text/css">
	.st0{fill:#D40005;}
</style>
<g transform="translate(0.000000,1280.000000) scale(0.100000,-0.100000)">
	<path class="st0" d="M6100,12794c-463-31-741-68-1090-145c-865-191-1718-582-2430-1114C1176,10485,263,8922,51,7200
		c-32-256-41-384-48-665c-21-907,151-1803,509-2647c74-175,262-548,358-713C1794,1597,3359,479,5140,125c1522-303,3088-50,4426,714
		c377,215,722,460,1049,745c152,132,453,434,592,592c1184,1351,1743,3107,1558,4893c-67,639-225,1250-480,1851
		c-72,168-261,544-355,705c-952,1625-2575,2756-4420,3079c-352,62-624,86-1030,90C6301,12796,6130,12796,6100,12794z M6675,12220
		c1305-69,2469-526,3475-1364c170-142,523-490,669-661c691-808,1151-1787,1326-2823c204-1204,23-2447-515-3537
		c-290-588-639-1073-1110-1546c-341-342-649-588-1044-834c-782-489-1636-773-2586-861c-252-24-728-24-980,0
		c-993,91-1876,395-2685,924C2122,2239,1294,3305,879,4540c-414,1234-408,2535,16,3767c227,660,577,1276,1049,1843
		c156,189,521,553,711,711c598,497,1227,846,1954,1084C5261,12158,5994,12256,6675,12220z"/>
	<path class="st0" d="M3112,8963l3-288l230-82c127-45,383-137,570-204s526-189,754-270c228-82,416-149,418-149s3,128,3,286v285
		l-32,13c-18,8-229,84-468,169c-239,86-668,239-953,341c-286,102-521,186-523,186S3111,9121,3112,8963z"/>
	<path class="st0" d="M9485,9205c-153-55-1091-392-1507-540c-175-63-322-117-328-120c-9-6-16-575-7-575c4,0,336,119,1287,460
		c294,105,569,204,610,218l75,27l3,288c1,158-1,287-5,286C9608,9249,9551,9229,9485,9205z"/>
	<path class="st0" d="M3972,8196c-134-33-275-141-339-263c-107-199-78-447,70-610c243-266,651-232,849,71c54,83,79,171,79,277
		s-13,164-60,254C4461,8139,4208,8253,3972,8196z"/>
	<path class="st0" d="M8503,8196c-182-44-332-190-387-376c-21-70-21-207-1-284c46-174,200-327,380-377c73-21,227-16,297,8
		c173,60,319,216,357,383c15,66,13,197-4,265c-49,186-216,346-403,384C8674,8213,8569,8212,8503,8196z"/>
	<path class="st0" d="M6165,5793c-861-57-1659-405-2287-999l-77-73v-340c0-188,2-341,5-341s53,43,111,95c535,484,1157,792,1838,910
		c267,46,319,50,645,50s378-4,645-50c676-118,1300-426,1830-903l110-99l3,341l3,341l-93,90c-441,427-1071,758-1709,899
		C6876,5783,6479,5814,6165,5793z"/>
</g>
</svg>
