<?xml version="1.0" standalone="no"?>
<!DOCTYPE svg PUBLIC "-//W3C//DTD SVG 20010904//EN"
 "http://www.w3.org/TR/2001/REC-SVG-20010904/DTD/svg10.dtd">
<svg version="1.0" xmlns="http://www.w3.org/2000/svg"
 width="200px" height="200px" viewBox="0 0 1280.000000 1280.000000"
 preserveAspectRatio="xMidYMid meet">
<metadata>
Created by potrace 1.15, written by Peter Selinger 2001-2017
</metadata>
<g transform="translate(0.000000,1280.000000) scale(0.100000,-0.100000)"
fill="orange" stroke="none">
<path d="M6100 12794 c-463 -31 -741 -68 -1090 -145 -865 -191 -1718 -582
-2430 -1114 -1404 -1050 -2317 -2613 -2529 -4335 -32 -256 -41 -384 -48 -665
-21 -907 151 -1803 509 -2647 74 -175 262 -548 358 -713 924 -1578 2489 -2696
4270 -3050 1522 -303 3088 -50 4426 714 377 215 722 460 1049 745 152 132 453
434 592 592 1184 1351 1743 3107 1558 4893 -67 639 -225 1250 -480 1851 -72
168 -261 544 -355 705 -952 1625 -2575 2756 -4420 3079 -352 62 -624 86 -1030
90 -179 2 -350 2 -380 0z m575 -574 c1305 -69 2469 -526 3475 -1364 170 -142
523 -490 669 -661 691 -808 1151 -1787 1326 -2823 204 -1204 23 -2447 -515
-3537 -290 -588 -639 -1073 -1110 -1546 -341 -342 -649 -588 -1044 -834 -782
-489 -1636 -773 -2586 -861 -252 -24 -728 -24 -980 0 -993 91 -1876 395 -2685
924 -1103 721 -1931 1787 -2346 3022 -414 1234 -408 2535 16 3767 227 660 577
1276 1049 1843 156 189 521 553 711 711 598 497 1227 846 1954 1084 652 213
1385 311 2066 275z"/>
<path d="M2948 9035 c-90 -124 -164 -229 -166 -234 -5 -14 194 -138 333 -206
221 -108 490 -186 744 -216 152 -17 475 -7 621 20 139 25 275 61 390 102 207
75 559 271 546 305 -3 8 -77 113 -163 232 -86 119 -158 219 -159 221 -2 2 -38
-19 -81 -46 -434 -278 -959 -344 -1446 -183 -111 37 -287 122 -381 184 -38 25
-70 46 -72 46 -1 0 -76 -101 -166 -225z"/>
<path d="M7628 9242 c-27 -30 -309 -424 -315 -438 -7 -18 138 -111 302 -194
206 -105 395 -167 635 -211 146 -27 451 -37 612 -20 240 25 507 99 723 201
165 77 369 204 361 225 -2 6 -77 112 -166 234 -156 214 -163 221 -184 208
-278 -182 -525 -270 -838 -298 -347 -31 -731 64 -1028 255 -36 23 -70 45 -76
49 -6 3 -18 -1 -26 -11z"/>
<path d="M8503 8216 c-185 -45 -339 -197 -388 -382 -21 -78 -20 -224 1 -294
28 -96 74 -172 143 -241 101 -100 218 -149 360 -149 408 -1 669 433 478 794
-108 206 -371 326 -594 272z"/>
<path d="M4025 8210 c-266 -42 -455 -263 -455 -529 0 -149 52 -275 154 -376
290 -287 774 -159 890 235 24 79 22 218 -3 301 -38 122 -149 257 -257 312
-100 51 -230 73 -329 57z"/>
<path d="M6037 5229 c-549 -28 -1133 -134 -1670 -304 -193 -60 -515 -179 -531
-195 -7 -7 -12 -130 -14 -356 l-3 -344 53 21 c694 278 1390 433 2153 480 236
14 747 6 980 -16 638 -60 1273 -209 1846 -434 l124 -48 3 297 c1 163 -1 321
-5 351 l-8 54 -195 73 c-868 327 -1796 470 -2733 421z"/>
</g>
</svg>
